<svg width="83" height="80" viewBox="0 0 83 80" fill="none" xmlns="http://www.w3.org/2000/svg">
<g filter="url(#filter0_d_1335_200)">
<path d="M33.6185 64.9389H49.6827V41.1709H33.6185V64.9389ZM46.7711 62.0549H36.5301V44.0549H46.6707V62.0549H46.7711Z" fill="#81B3D2"/>
<path d="M76.8916 39.1823L79 37.0939L69.0603 27.2486V0.39779H55.2048V13.5249L41.4498 0L4 37.1934L6.10843 39.2818L13.9398 31.5249V69.116H10.0241V72H74.1807V69.116H69.0603V31.4254L76.8916 39.1823ZM58.1165 3.38122H66.0482V24.3646L58.1165 16.5083V3.38122ZM66.1486 69.0166H16.9518V28.5414L41.4498 4.1768L66.0482 28.5414V69.0166H66.1486Z" fill="#81B3D2"/>
<path d="M33.9197 27.0491C33.9197 31.3253 37.4338 34.806 41.6507 34.806C45.9679 34.806 49.482 31.3253 49.482 27.0491C49.482 22.7728 45.9679 19.3916 41.6507 19.3916C37.3334 19.3916 33.9197 22.7728 33.9197 27.0491ZM41.6507 22.0767C44.3615 22.0767 46.6707 24.2645 46.6707 27.0491C46.6707 29.7341 44.4619 32.0214 41.6507 32.0214C38.9398 32.0214 36.6306 29.8336 36.6306 27.0491C36.6306 24.364 38.9398 22.0767 41.6507 22.0767Z" fill="#81B3D2"/>
<path d="M23.9799 41.1709H20.9679V45.0493H23.9799V41.1709Z" fill="#81B3D2"/>
<path d="M29.9036 41.1709H26.8915V45.0493H29.9036V41.1709Z" fill="#81B3D2"/>
<path d="M23.9799 47.1387H20.9679V51.0171H23.9799V47.1387Z" fill="#81B3D2"/>
<path d="M29.9036 47.1387H26.8915V51.0171H29.9036V47.1387Z" fill="#81B3D2"/>
<path d="M56.008 41.1709H52.996V45.0493H56.008V41.1709Z" fill="#81B3D2"/>
<path d="M62.0321 41.1709H59.0201V45.0493H62.0321V41.1709Z" fill="#81B3D2"/>
<path d="M56.008 47.1387H52.996V51.0171H56.008V47.1387Z" fill="#81B3D2"/>
<path d="M62.0321 47.1387H59.0201V51.0171H62.0321V47.1387Z" fill="#81B3D2"/>
</g>
<defs>
<filter id="filter0_d_1335_200" x="0" y="0" width="83" height="80" filterUnits="userSpaceOnUse" color-interpolation-filters="sRGB">
<feFlood flood-opacity="0" result="BackgroundImageFix"/>
<feColorMatrix in="SourceAlpha" type="matrix" values="0 0 0 0 0 0 0 0 0 0 0 0 0 0 0 0 0 0 127 0" result="hardAlpha"/>
<feOffset dy="4"/>
<feGaussianBlur stdDeviation="2"/>
<feComposite in2="hardAlpha" operator="out"/>
<feColorMatrix type="matrix" values="0 0 0 0 0 0 0 0 0 0 0 0 0 0 0 0 0 0 0.25 0"/>
<feBlend mode="normal" in2="BackgroundImageFix" result="effect1_dropShadow_1335_200"/>
<feBlend mode="normal" in="SourceGraphic" in2="effect1_dropShadow_1335_200" result="shape"/>
</filter>
</defs>
</svg>
